HIERARCHY
ROOT pelvis
{
  OFFSET 0 100 0
  CHANNELS 6 Xposition Yposition Zposition Zrotation Xrotation Yrotation
  JOINT pelvis_right_femur
  {
    OFFSET -10.78128 -3.44521 -0.5502486
    CHANNELS 3 Zrotation Xrotation Yrotation
    JOINT right_femur_tibia
    {
      OFFSET -0.8047443 -44.0398 -0.1307829
      CHANNELS 3 Zrotation Xrotation Yrotation
      JOINT right_tibia_foot
      {
        OFFSET 3.006224 -47.83518 -5
        CHANNELS 3 Zrotation Xrotation Yrotation
        End Site
        {
          OFFSET 0 -5 15
        }
      }
    }
  }
  JOINT pelvis_left_femur
  {
    OFFSET 10.78128 -3.44521 -0.5502486
    CHANNELS 3 Zrotation Xrotation Yrotation
    JOINT left_femur_tibia
    {
      OFFSET 0.8047443 -44.0398 -0.1307829
      CHANNELS 3 Zrotation Xrotation Yrotation
      JOINT left_tibia_foot
      {
        OFFSET -4.370144 -48.10324 -4.275266
        CHANNELS 3 Zrotation Xrotation Yrotation
        End Site
        {
          OFFSET 0 -5 15
        }
      }
    }
  }
  JOINT pelvis_spine1
  {
    OFFSET 0 6.468898 -3.129235
    CHANNELS 3 Zrotation Xrotation Yrotation
    JOINT spine1
    {
      OFFSET 0 23.15396 4.99043
      CHANNELS 3 Zrotation Xrotation Yrotation
      JOINT spine2
      {
        OFFSET 0 20.79997 -5.064912
        CHANNELS 3 Zrotation Xrotation Yrotation
        JOINT neck
        {
          OFFSET 0 14.38658 9.616178
          CHANNELS 3 Zrotation Xrotation Yrotation
          End Site
          {
            OFFSET 0 20 0
          }
        }
      }
      JOINT right_manubrium
      {
        OFFSET -5.722621 16.35077 3.967754
        CHANNELS 3 Zrotation Xrotation Yrotation
        JOINT right_clavicle
        {
          OFFSET -13.16364 1.694482 -4.693211
          CHANNELS 3 Zrotation Xrotation Yrotation
          JOINT right_humerus
          {
            OFFSET -28.5034 -0.3100689 -2.792744
            CHANNELS 3 Zrotation Xrotation Yrotation
            JOINT right_radius
            {
              OFFSET -25.15693 0.02248979 -1.271978
              CHANNELS 3 Zrotation Xrotation Yrotation
              End Site
              {
                OFFSET -15 0 0
              }
            }
          }
        }
      }
      JOINT left_manubrium
      {
        OFFSET 5.722621 16.35077 3.967754
        CHANNELS 3 Zrotation Xrotation Yrotation
        JOINT left_clavicle
        {
          OFFSET 13.16364 1.694482 -4.693211
          CHANNELS 3 Zrotation Xrotation Yrotation
          JOINT left_humerus
          {
            OFFSET 29.39168 -1.063119 -2.237045
            CHANNELS 3 Zrotation Xrotation Yrotation
            JOINT left_radius
            {
              OFFSET 24.59957 -0.9528479 0.9047498
              CHANNELS 3 Zrotation Xrotation Yrotation
              End Site
              {
                OFFSET 15 -0 -0
              }
            }
          }
        }
      }
    }
  }
}
MOTION
Frames: 19
Frame Time: 0.0416666666667
0 103.5113 0 1.129887 -2.601354 -0.06198692 3.143812 -13.8443 7.945206 -0 39.01695 -0 -5.619365 -16.43024 -3.137617 -6.854541 10.95458 -22.65134 -0 4.542121 -0 7.702007 -15.30913 26.11461 -2.350557 -3.606098 5.57064 2.965152 9.190957 -7.364521 1.310409 22.16093 5.763517 1.758465 -26.69585 9.826825 5.480845 -19.5661 10.3161 85.80994 35.29422 -19.79947 -0 0 15.19563 -4.835214 6.470533 3.238394 5.547566 -20.91994 -0.9105138 -96.34848 27.18538 25.75805 0 0 -14.22876 10.51352 17.20054 3.060387
0.2657693 103.3844 1.500437 0.9655247 -1.874389 -0.1813395 3.500115 -15.21755 8.939653 -0 39.45042 -0 -5.394099 -16.97514 -3.691678 -6.830534 11.28436 -23.21516 -0 4.789687 -0 7.3959 -16.22432 26.54521 -2.483863 -3.777137 5.715825 2.928883 9.04486 -7.280926 1.260265 22.41029 5.493094 1.521472 -26.55884 9.619931 5.281987 -19.70909 10.12808 85.58296 35.33333 -19.4828 -0 0 15.37163 -4.942433 6.133288 3.395075 5.388827 -20.9651 -0.8807092 -96.61645 27.82284 26.21956 0 0 -14.11092 10.11139 17.4308 3.591281
0.4826604 103.2037 3.115777 0.7836328 -0.9200278 -0.2378766 3.895257 -18.19731 8.660081 -0 36.73651 -0 -5.571916 -15.73067 -3.692294 -6.825952 11.78276 -23.01793 -0 5.177634 -0 7.06408 -17.89392 26.20563 -2.171215 -3.350854 5.447301 3.217387 9.600448 -7.813685 1.097809 21.67801 6.019785 2.10384 -26.7678 9.433035 5.516922 -19.37184 10.71499 86.62039 34.93288 -21.05235 -0 0 14.27752 -5.500263 6.909644 3.583612 5.617747 -21.46163 -1.240219 -95.51714 26.63852 24.84677 0 0 -15.92988 9.908383 15.78109 3.821034
0.6700499 102.9432 4.900236 0.5924383 -0.05560877 -0.2200155 4.254269 -20.96198 8.27508 -0 33.88901 -0 -5.746393 -14.345 -3.595376 -6.790677 12.17407 -22.6675 -0 5.538526 -0 6.592072 -19.41734 25.64842 -1.988881 -3.16663 5.269023 3.544132 9.906286 -8.293309 0.9233916 21.18675 6.305145 2.399972 -27.06592 9.232559 5.539383 -19.19146 11.05387 87.51199 34.57116 -22.47853 -0 0 13.38627 -5.687245 7.184323 3.654382 5.747442 -22.00207 -1.525596 -94.83033 26.18417 24.01914 0 0 -17.70613 9.616848 14.55824 4.291689
0.8429822 102.5711 6.976985 0.3861254 0.8974179 -0.1058865 4.674167 -24.11131 7.664068 -0 30.20847 -0 -5.917344 -12.43937 -3.285555 -6.768384 12.55615 -21.99153 -0 5.997281 -0 6.341462 -20.83512 24.86657 -1.82551 -3.0041 5.082519 3.857184 10.14215 -8.738211 0.7679931 20.7235 6.58655 2.668902 -27.37501 9.089236 5.528681 -19.01864 11.34516 88.33749 34.27019 -23.77741 -0 0 12.5505 -5.832887 7.438824 3.715478 5.901458 -22.51101 -1.768408 -94.14775 25.74876 23.18379 0 0 -19.44579 9.46095 13.4323 4.607085
1.01555 102.0613 9.466243 0.1365956 1.847951 0.1287474 5.117286 -27.38341 6.818779 -0 25.99364 -0 -6.144788 -10.05433 -2.768148 -6.713423 12.94028 -21.00763 -0 6.64793 -0 6.041874 -22.07646 23.77141 -1.687235 -2.895395 4.916858 4.17875 10.31987 -9.17354 0.604675 20.3044 6.827768 2.883307 -27.7084 8.945988 5.465703 -18.88163 11.58245 89.138 33.98027 -25.04892 -0 0 11.75313 -5.923473 7.597771 3.761164 6.046069 -23.0482 -1.998607 -93.54766 25.46158 22.46476 0 0 -21.20094 9.298901 12.38213 4.974437
1.199747 101.4099 12.49618 -0.1955028 2.764696 0.5075424 5.609097 -30.62808 5.797948 -0 21.48881 -0 -6.464548 -7.23236 -2.0657 -6.582881 13.34896 -19.71528 -0 7.670803 -0 5.508894 -23.03563 22.28428 -1.571874 -2.81199 4.772314 4.468951 10.4579 -9.565783 0.448251 19.93785 7.036839 3.063458 -28.00176 8.804896 5.378727 -18.76373 11.77719 89.8608 33.7269 -26.18497 -0 0 11.02644 -6.045976 7.730731 3.829511 6.180395 -23.56289 -2.208711 -93.00021 25.2441 21.81959 0 0 -22.83548 9.143614 11.42972 5.338286
1.405174 100.644 16.19089 -0.6479291 3.565186 1.042999 6.184343 -33.50403 4.717113 -0 17.12801 -0 -6.902752 -4.153649 -1.249539 -6.317704 13.78432 -18.13207 -0 9.324418 -0 4.506938 -23.4998 20.31614 -1.478126 -2.749502 4.655014 4.719436 10.57435 -9.912421 0.2978823 19.63055 7.207263 3.211491 -28.232 8.650201 5.280655 -18.66231 11.9362 90.50538 33.49848 -27.18791 -0 0 10.37338 -6.225062 7.846805 3.926087 6.291505 -24.05167 -2.409493 -92.51783 25.10053 21.2646 0 0 -24.30581 8.953128 10.57784 5.742411
1.636267 99.84051 20.64834 -1.243474 4.136495 1.716871 6.908516 -35.49207 3.803058 -0 13.5451 -0 -7.44009 -1.209363 -0.480781 -5.853708 14.2205 -16.32521 -0 11.9854 -0 2.837314 -23.13461 17.84303 -1.407746 -2.696688 4.570423 4.906694 10.68436 -10.19412 0.1618141 19.39746 7.330981 3.329902 -28.35431 8.473864 5.190512 -18.57063 12.06377 91.03921 33.30086 -28.00141 -0 0 9.819364 -6.502885 7.973921 4.066651 6.365519 -24.48291 -2.601507 -92.10302 25.01269 20.80037 0 0 -25.5146 8.704868 9.852745 6.189382
1.887077 99.14324 25.89944 -1.949789 4.33244 2.450012 7.812842 -35.89092 3.346107 -0 11.50724 -0 -7.993775 0.9525502 -0.02768703 -5.153005 14.56976 -14.44395 -0 16.15294 -0 0.4883166 -21.50718 15.01961 -1.363364 -2.646782 4.526133 5.012191 10.80091 -10.39463 0.04663933 19.25311 7.397137 3.417242 -28.33248 8.26723 5.124152 -18.48718 12.16287 91.43138 33.13659 -28.57837 -0 0 9.392171 -6.908254 8.129108 4.261991 6.386157 -24.8279 -2.785727 -91.76655 24.97518 20.44127 0 0 -26.3779 8.371073 9.278866 6.69237
2.135833 98.76295 31.85398 -2.631742 4.019683 3.080628 8.741514 -34.02257 3.517046 -0 11.59895 -0 -8.455387 1.561089 -0.1851359 -4.269604 14.61717 -12.73943 -0 22.37957 -0 -2.188669 -18.29473 12.27959 -1.349639 -2.592666 4.532179 5.014253 10.93201 -10.49128 -0.03891184 19.21311 7.393731 3.47057 -28.12911 8.024966 5.094822 -18.41486 12.23459 91.63479 33.01622 -28.84603 -0 0 9.133465 -7.47297 8.330069 4.529226 6.337319 -25.04747 -2.956603 -91.51772 24.97752 20.20444 0 0 -26.80365 7.932441 8.883203 7.250325
2.349759 98.92711 38.26943 -3.041639 3.15776 3.398716 9.247812 -29.71545 4.099185 -0 13.60333 -0 -8.820882 0.2300138 -0.9927736 -3.423585 13.92273 -11.48608 -0 31.02232 -0 -4.500418 -13.72195 10.22259 -1.372503 -2.529595 4.601769 4.893833 11.07765 -10.45954 -0.08727345 19.28898 7.310378 3.485985 -27.71826 7.745471 5.107223 -18.36553 12.27822 91.59392 32.95586 -28.71955 -0 0 9.094446 -8.22592 8.586464 4.891294 6.206966 -25.10145 -3.102344 -91.36567 25.00852 20.11556 0 0 -26.71801 7.380806 8.683364 7.853263
2.514049 99.76149 44.80678 -2.93613 1.855182 3.270349 8.905404 -23.76807 4.520397 -0 16.0592 -0 -9.199785 -2.352927 -1.944406 -2.951117 11.775 -10.74146 -0 41.71756 -0 -5.833309 -8.906195 9.232639 -1.438328 -2.455756 4.750556 4.637697 11.2264 -10.27556 -0.09422527 19.48302 7.142823 3.460738 -27.09392 7.432614 5.152032 -18.36198 12.29145 91.2503 32.9774 -28.10803 -0 0 9.331211 -9.194316 8.896707 5.37982 5.992943 -24.95623 -3.204084 -91.31413 25.05346 20.20486 0 0 -26.08857 6.727649 8.676624 8.478162
2.664475 101.1621 51.17789 -2.301066 0.3013642 2.75352 7.880386 -17.56449 4.380384 -0 17.00596 -0 -9.47545 -4.61446 -2.277411 -2.976909 7.455059 -10.12715 -0 52.73563 -0 -6.15159 -5.403795 9.269417 -1.551992 -2.373945 4.993917 4.24541 11.35435 -9.924526 -0.06285934 19.78157 6.898372 3.395416 -26.28182 7.095777 5.201417 -18.4378 12.27173 90.55914 33.103 -26.93976 -0 0 9.891001 -10.40009 9.243235 6.032544 5.708119 -24.59972 -3.239907 -91.3568 25.09701 20.5017 0 0 -24.96078 6.00687 8.826432 9.095311
2.856264 102.7839 57.24602 -1.423595 -1.388812 2.038211 6.89082 -11.87632 3.958393 -0 15.77215 -0 -9.206564 -5.690126 -1.88506 -3.073473 0.9872087 -9.078493 -0 61.0256 -0 -5.910898 -3.992187 10.16829 -1.714885 -2.290816 5.342379 3.733393 11.42913 -9.407799 -0.004877066 20.15267 6.598617 3.295252 -25.34072 6.748874 5.212103 -18.63146 12.21862 89.50348 33.34766 -25.18489 -0 0 10.79793 -11.85664 9.59586 6.886598 5.380057 -24.04925 -3.191175 -91.47272 25.12414 21.02345 0 0 -23.47289 5.270756 9.059762 9.67504
3.086561 104.183 62.98247 -0.6496694 -3.182862 1.281634 6.415428 -6.498179 3.824813 -0 13.44915 -0 -8.236147 -6.338177 -1.500077 -2.575665 -6.383426 -7.440461 -0 63.73587 -0 -5.48241 -4.15001 11.87087 -1.923192 -2.213216 5.79689 3.133206 11.41914 -8.74468 0.06313394 20.55096 6.276752 3.169684 -24.35059 6.409816 5.138288 -18.97502 12.13578 88.09827 33.71076 -22.86474 -0 0 12.04506 -13.56069 9.921739 7.965343 5.043854 -23.34469 -3.047713 -91.62798 25.1174 21.76522 0 0 -21.82653 4.581034 9.283217 10.18839
3.298734 105.0081 68.4099 -0.1541095 -4.877138 0.5489182 6.286684 -1.141056 3.972054 -0 11.29101 -0 -7.029317 -7.753433 -1.576888 -1.305172 -13.0677 -5.611029 -0 60.03569 -0 -4.969788 -4.869008 14.10989 -2.165281 -2.143201 6.344881 2.484937 11.3052 -7.969328 0.12688 20.92753 5.971481 3.032137 -23.39349 6.10096 4.949782 -19.47917 12.03138 86.39089 34.16514 -20.05413 -0 0 13.59035 -15.4769 10.19578 9.259238 4.734027 -22.53376 -2.810322 -91.78616 25.0512 22.69377 0 0 -20.22034 3.999942 9.411797 10.60093
3.462268 105.1179 73.62577 0.04641484 -6.016295 -0.1450942 6.124925 3.984288 3.926614 -0 9.659363 -0 -6.167929 -10.25737 -1.777877 0.3379876 -18.28984 -4.09748 -0 51.36574 -0 -4.451611 -5.470832 16.25172 -2.417992 -2.075865 6.957334 1.831225 11.09237 -7.129869 0.1791439 21.23877 5.720386 2.901346 -22.53694 5.846055 4.64682 -20.119 11.91735 84.47534 34.64431 -16.90243 -0 0 15.34774 -17.5204 10.40641 10.70614 4.480421 -21.66754 -2.495145 -91.92343 24.89321 23.74627 0 0 -18.79166 3.57534 9.391398 10.87846
3.606933 104.5799 78.8067 0.01829381 -6.301564 -0.7935538 5.750692 8.491241 3.439296 -0 8.52955 -0 -5.794435 -13.27328 -1.670819 1.825022 -22.01041 -3.149702 -0 40.39356 -0 -4.076534 -5.750315 17.76979 -2.646729 -2.001965 7.589292 1.212742 10.81615 -6.288513 0.2197482 21.45344 5.551701 2.800732 -21.82172 5.66127 4.264272 -20.82915 11.80806 82.51013 35.04411 -13.65842 -0 0 17.18294 -19.55448 10.55742 12.18718 4.305696 -20.80519 -2.138477 -92.03799 24.61817 24.83531 0 0 -17.59584 3.318166 9.205976 11.01066
